<svg xmlns="http://www.w3.org/2000/svg" version="1.1" xmlns:xlink="http://www.w3.org/1999/xlink" xmlns:svgjs="http://svgjs.dev/svgjs" width="1000" height="249" viewBox="0 0 1000 249"><g transform="matrix(1,0,0,1,-0.606039637979336,0.121941835154189)"><svg viewBox="0 0 396 99" data-background-color="#19381f" preserveAspectRatio="xMidYMid meet" height="249" width="1000" xmlns="http://www.w3.org/2000/svg" xmlns:xlink="http://www.w3.org/1999/xlink"><g id="tight-bounds" transform="matrix(1,0,0,1,0.23999169663983366,-0.048482898314318845)"><svg viewBox="0 0 395.52 99.09696579662864" height="99.09696579662864" width="395.52"><g><svg viewBox="0 0 565.3408303943711 141.6453300288952" height="99.09696579662864" width="395.52"><g transform="matrix(1,0,0,1,169.82083039437111,40.98534528957518)"><svg viewBox="0 0 395.52 59.67463944974483" height="59.67463944974483" width="395.52"><g id="textblocktransform"><svg viewBox="0 0 395.52 59.67463944974483" height="59.67463944974483" width="395.52" id="textblock"><g><svg viewBox="0 0 395.52 59.67463944974483" height="59.67463944974483" width="395.52"><g transform="matrix(1,0,0,1,0,0)"><svg width="395.52" viewBox="2.5999999046325684 -33.400001525878906 225.32998657226562 34" height="59.67463944974483" data-palette-color="#dce1de"><path d="M17.4 0.6L17.4 0.6Q14.15 0.6 11.43-0.55 8.7-1.7 6.75-3.88 4.8-6.05 3.7-9.22 2.6-12.4 2.6-16.4L2.6-16.4Q2.6-20.35 3.73-23.5 4.85-26.65 6.85-28.85 8.85-31.05 11.63-32.23 14.4-33.4 17.65-33.4L17.65-33.4Q19.35-33.4 20.78-33.05 22.2-32.7 23.38-32.13 24.55-31.55 25.48-30.83 26.4-30.1 27.1-29.35L27.1-29.35 24.8-26.65Q23.55-27.95 21.9-28.85 20.25-29.75 17.75-29.75L17.75-29.75Q15.25-29.75 13.25-28.83 11.25-27.9 9.85-26.18 8.45-24.45 7.68-22 6.9-19.55 6.9-16.5L6.9-16.5Q6.9-13.4 7.63-10.93 8.35-8.45 9.73-6.7 11.1-4.95 13.13-4 15.15-3.05 17.8-3.05L17.8-3.05Q19.55-3.05 21.13-3.58 22.7-4.1 23.7-5L23.7-5 23.7-13.55 16.75-13.55 16.75-17 27.5-17 27.5-3.2Q25.9-1.55 23.3-0.48 20.7 0.6 17.4 0.6ZM54.75 0L35.35 0 35.35-32.8 54.25-32.8 54.25-29.3 39.5-29.3 39.5-19 51.95-19 51.95-15.45 39.5-15.45 39.5-3.55 54.75-3.55 54.75 0ZM72.7 0L68.5 0 68.5-29.3 58.6-29.3 58.6-32.8 82.6-32.8 82.6-29.3 72.7-29.3 72.7 0ZM92.64 0L88.49 0 88.49-32.8 107.39-32.8 107.39-29.3 92.64-29.3 92.64-18.2 105.14-18.2 105.14-14.7 92.64-14.7 92.64 0ZM131.69 0L113.19 0 113.19-32.8 117.34-32.8 117.34-3.55 131.69-3.55 131.69 0ZM141.64 0L137.49 0 137.49-32.8 141.64-32.8 141.64 0ZM163.04 0.6L163.04 0.6Q159.94 0.6 157.34-0.55 154.74-1.7 152.81-3.88 150.89-6.05 149.81-9.22 148.74-12.4 148.74-16.4L148.74-16.4Q148.74-20.35 149.84-23.5 150.94-26.65 152.89-28.85 154.84-31.05 157.49-32.23 160.14-33.4 163.29-33.4L163.29-33.4Q166.29-33.4 168.56-32.18 170.84-30.95 172.29-29.35L172.29-29.35 170.04-26.65Q168.74-28.05 167.09-28.9 165.44-29.75 163.34-29.75L163.34-29.75Q160.99-29.75 159.09-28.83 157.19-27.9 155.84-26.18 154.49-24.45 153.76-22 153.04-19.55 153.04-16.5L153.04-16.5Q153.04-13.4 153.76-10.93 154.49-8.45 155.79-6.7 157.09-4.95 158.96-4 160.84-3.05 163.19-3.05L163.19-3.05Q165.59-3.05 167.39-4.03 169.19-5 170.79-6.75L170.79-6.75 173.09-4.15Q171.14-1.9 168.69-0.65 166.24 0.6 163.04 0.6ZM183.33 0L179.18 0 179.18-32.8 183.33-32.8 183.33-16.35 183.48-16.35 197.13-32.8 201.83-32.8 191.58-20.3 203.43 0 198.78 0 188.98-17.05 183.33-10.4 183.33 0ZM216.78 0.6L216.78 0.6Q213.33 0.6 210.38-0.7 207.43-2 205.28-4.25L205.28-4.25 207.78-7.15Q209.53-5.3 211.91-4.17 214.28-3.05 216.83-3.05L216.83-3.05Q220.08-3.05 221.88-4.53 223.68-6 223.68-8.4L223.68-8.4Q223.68-9.65 223.26-10.53 222.83-11.4 222.11-12.03 221.38-12.65 220.38-13.15 219.38-13.65 218.23-14.2L218.23-14.2 213.53-16.25Q212.38-16.75 211.18-17.45 209.98-18.15 209.03-19.15 208.08-20.15 207.48-21.53 206.88-22.9 206.88-24.7L206.88-24.7Q206.88-26.55 207.66-28.15 208.43-29.75 209.81-30.93 211.18-32.1 213.06-32.75 214.93-33.4 217.18-33.4L217.18-33.4Q220.13-33.4 222.63-32.27 225.13-31.15 226.88-29.35L226.88-29.35 224.63-26.65Q223.13-28.1 221.31-28.93 219.48-29.75 217.18-29.75L217.18-29.75Q214.43-29.75 212.76-28.48 211.08-27.2 211.08-24.95L211.08-24.95Q211.08-23.75 211.56-22.93 212.03-22.1 212.83-21.48 213.63-20.85 214.58-20.38 215.53-19.9 216.53-19.5L216.53-19.5 221.18-17.5Q222.58-16.9 223.83-16.13 225.08-15.35 225.98-14.33 226.88-13.3 227.41-11.93 227.93-10.55 227.93-8.75L227.93-8.75Q227.93-6.8 227.16-5.1 226.38-3.4 224.93-2.13 223.48-0.85 221.43-0.13 219.38 0.6 216.78 0.6Z" opacity="1" transform="matrix(1,0,0,1,0,0)" fill="#dce1de" class="wordmark-text-0" data-fill-palette-color="primary" id="text-0"></path></svg></g></svg></g></svg></g></svg></g><g><svg viewBox="0 0 141.6453300288952 141.6453300288952" height="141.6453300288952" width="141.6453300288952"><g><svg></svg></g><g id="icon-0"><svg viewBox="0 0 141.6453300288952 141.6453300288952" height="141.6453300288952" width="141.6453300288952"><g><path d="M0 70.823c0-39.114 31.708-70.823 70.823-70.823 39.114 0 70.823 31.708 70.822 70.823 0 39.114-31.708 70.823-70.822 70.822-39.114 0-70.823-31.708-70.823-70.822zM70.823 136.264c36.142 0 65.441-29.299 65.441-65.441 0-36.142-29.299-65.441-65.441-65.441-36.142 0-65.441 29.299-65.441 65.441 0 36.142 29.299 65.441 65.441 65.441z" data-fill-palette-color="accent" fill="#9cc5a1" stroke="transparent"></path></g><g transform="matrix(1,0,0,1,33.1907416185656,33.1907416185656)"><svg viewBox="0 0 75.26384679176398 75.26384679176398" height="75.26384679176398" width="75.26384679176398"><g><svg xmlns="http://www.w3.org/2000/svg" xmlns:xlink="http://www.w3.org/1999/xlink" version="1.1" x="0" y="0" viewBox="0 0 100 100" style="enable-background:new 0 0 100 100;" xml:space="preserve" height="75.26384679176398" width="75.26384679176398" class="icon-s-0" data-fill-palette-color="accent" id="s-0"><path d="M87.427 25H75.086L87.5 12.549 75.232 0H57.837l12.464 12.451L57.531 25H42.773l12.684-12.451L42.92 0H25.244l12.451 12.451L24.927 25H12.402l12.695-12.451L12.549 0H0v100h100V0H87.744L100 12.5 87.427 25zM87.5 87.365h-75v-12.5h75V87.365zM87.5 62.5h-75V50h75V62.5z" fill="#9cc5a1" data-fill-palette-color="accent"></path></svg></g></svg></g></svg></g></svg></g></svg></g><defs></defs></svg><rect width="395.52" height="99.09696579662864" fill="none" stroke="none" visibility="hidden"></rect></g></svg></g></svg>